<svg width="1584" height="396" viewBox="0 0 1584 396" fill="none" xmlns="http://www.w3.org/2000/svg">
<rect width="1584" height="396" fill="#F5F5F5"/>
<g id="Awesome banner" clip-path="url(#clip0_0_1)">
<rect width="1584" height="396" fill="url(#paint0_linear_0_1)"/>
<ellipse id="Ellipse 2" cx="323" cy="64" rx="285" ry="288" fill="url(#paint1_linear_0_1)" fill-opacity="0.1"/>
<g id="copyright">
<path d="M75.95 334.52L72.30 334.52L72.30 311.16L77.20 311.16L83.70 330.04Q83.60 329.02 83.50 327.62Q83.41 326.23 83.33 324.79Q83.25 323.35 83.25 322.23L83.25 311.16L86.90 311.16L86.90 334.52L82 334.52L75.57 315.64Q75.63 316.57 75.73 317.88Q75.82 319.19 75.89 320.57Q75.95 321.94 75.95 323.10L75.95 334.52M98.80 334.84Q96.46 334.84 94.67 333.96Q92.88 333.08 91.89 331.53Q90.90 329.98 90.90 327.93Q90.90 325.78 92.13 324.18Q93.36 322.58 95.34 322.17L95.34 322.10Q93.65 321.75 92.61 320.38Q91.57 319 91.57 317.11Q91.57 315.26 92.48 313.85Q93.39 312.44 95.02 311.64Q96.66 310.84 98.80 310.84Q100.94 310.84 102.59 311.64Q104.24 312.44 105.15 313.85Q106.06 315.26 106.06 317.11Q106.06 319 105.01 320.38Q103.95 321.75 102.26 322.10L102.26 322.17Q104.24 322.58 105.47 324.18Q106.70 325.78 106.70 327.93Q106.70 329.98 105.71 331.53Q104.72 333.08 102.93 333.96Q101.14 334.84 98.80 334.84M98.80 320.73Q100.30 320.73 101.23 319.82Q102.16 318.90 102.16 317.46Q102.16 315.99 101.23 315.08Q100.30 314.17 98.80 314.17Q97.30 314.17 96.37 315.08Q95.44 315.99 95.44 317.46Q95.44 318.90 96.37 319.82Q97.30 320.73 98.80 320.73M98.80 331.45Q100.56 331.45 101.68 330.42Q102.80 329.40 102.80 327.74Q102.80 326.04 101.68 325Q100.56 323.96 98.80 323.96Q97.04 323.96 95.92 325Q94.80 326.04 94.80 327.74Q94.80 329.40 95.92 330.42Q97.04 331.45 98.80 331.45M114.35 334.52L110.70 334.52L110.70 311.16L115.60 311.16L122.10 330.04Q122 329.02 121.90 327.62Q121.81 326.23 121.73 324.79Q121.65 323.35 121.65 322.23L121.65 311.16L125.30 311.16L125.30 334.52L120.40 334.52L113.97 315.64Q114.03 316.57 114.13 317.88Q114.22 319.19 114.29 320.57Q114.35 321.94 114.35 323.10" fill="white" fill-opacity="0.9"/>
<path d="M161.48 325.24L151.24 325.24L151.24 322.68L161.48 322.68" fill="white" fill-opacity="0.9"/>
<path d="M195.02 334.84Q191.82 334.84 189.96 333.05Q188.11 331.26 188.11 328.12L188.11 317.56Q188.11 314.42 189.96 312.63Q191.82 310.84 195.02 310.84Q198.15 310.84 200.01 312.65Q201.87 314.46 201.87 317.56L198.99 317.56Q198.99 315.58 197.95 314.50Q196.91 313.43 195.02 313.43Q193.13 313.43 192.06 314.50Q190.99 315.58 190.99 317.56L190.99 328.12Q190.99 330.10 192.06 331.18Q193.13 332.25 195.02 332.25Q196.91 332.25 197.95 331.18Q198.99 330.10 198.99 328.12L201.87 328.12Q201.87 331.22 200.01 333.03Q198.15 334.84 195.02 334.84" fill="white" fill-opacity="0.9"/>
<path d="M213.96 334.84Q210.83 334.84 209 333.02Q207.18 331.19 207.18 327.80L207.18 317.88Q207.18 314.49 209 312.66Q210.83 310.84 213.96 310.84Q217.10 310.84 218.92 312.66Q220.75 314.49 220.75 317.85L220.75 327.80Q220.75 331.19 218.92 333.02Q217.10 334.84 213.96 334.84M213.96 332.25Q215.85 332.25 216.86 331.18Q217.87 330.10 217.87 328.12L217.87 317.56Q217.87 315.58 216.86 314.50Q215.85 313.43 213.96 313.43Q212.11 313.43 211.08 314.50Q210.06 315.58 210.06 317.56L210.06 328.12Q210.06 330.10 211.08 331.18Q212.11 332.25 213.96 332.25" fill="white" fill-opacity="0.9"/>
<path d="M228.65 334.52L225.87 334.52L225.87 311.16L230.12 311.16L233.10 321.27L236.20 311.16L240.46 311.16L240.46 334.52L237.67 334.52L237.67 323.48Q237.67 321.91 237.72 319.88Q237.77 317.85 237.87 315.77Q237.96 313.69 238.09 312.02L234.31 324.09L231.82 324.09L228.20 312.31Q228.46 314.68 228.55 317.50Q228.65 320.31 228.65 323.48" fill="white" fill-opacity="0.9"/>
<path d="M247.85 334.52L245.07 334.52L245.07 311.16L249.32 311.16L252.30 321.27L255.40 311.16L259.66 311.16L259.66 334.52L256.87 334.52L256.87 323.48Q256.87 321.91 256.92 319.88Q256.97 317.85 257.07 315.77Q257.16 313.69 257.29 312.02L253.51 324.09L251.02 324.09L247.40 312.31Q247.66 314.68 247.75 317.50Q247.85 320.31 247.85 323.48" fill="white" fill-opacity="0.9"/>
<path d="M271.56 334.84Q268.30 334.84 266.57 333.03Q264.84 331.22 264.84 328.12L264.84 311.16L267.72 311.16L267.72 328.12Q267.72 330.04 268.67 331.16Q269.61 332.28 271.56 332.28Q273.48 332.28 274.44 331.16Q275.40 330.04 275.40 328.12L275.40 311.16L278.28 311.16L278.28 328.12Q278.28 331.26 276.57 333.05Q274.86 334.84 271.56 334.84" fill="white" fill-opacity="0.9"/>
<path d="M286.83 334.52L284.04 334.52L284.04 311.16L287.88 311.16L295.02 331.16Q294.95 330.36 294.87 329.19Q294.79 328.02 294.75 326.73Q294.70 325.43 294.70 324.28L294.70 311.16L297.48 311.16L297.48 334.52L293.64 334.52L286.54 314.52Q286.60 315.29 286.67 316.46Q286.73 317.62 286.78 318.92Q286.83 320.22 286.83 321.40" fill="white" fill-opacity="0.9"/>
<path d="M316.20 334.52L303.72 334.52L303.72 331.90L308.49 331.90L308.49 313.78L303.72 313.78L303.72 311.16L316.20 311.16L316.20 313.78L311.43 313.78L311.43 331.90L316.20 331.90" fill="white" fill-opacity="0.9"/>
<path d="M330.60 334.52L327.72 334.52L327.72 313.78L321.32 313.78L321.32 311.16L337 311.16L337 313.78L330.60 313.78" fill="white" fill-opacity="0.9"/>
<path d="M349.80 334.52L346.92 334.52L346.92 325.78L339.88 311.16L342.95 311.16L347.50 320.76Q347.88 321.56 348.11 322.12Q348.33 322.68 348.39 322.94Q348.46 322.68 348.70 322.12Q348.94 321.56 349.32 320.76L353.87 311.16L356.84 311.16L349.80 325.78" fill="white" fill-opacity="0.9"/>
<path d="M382.83 334.52L380.04 334.52L380.04 311.16L383.88 311.16L391.02 331.16Q390.95 330.36 390.87 329.19Q390.79 328.02 390.75 326.73Q390.70 325.43 390.70 324.28L390.70 311.16L393.48 311.16L393.48 334.52L389.64 334.52L382.54 314.52Q382.60 315.29 382.67 316.46Q382.73 317.62 382.78 318.92Q382.83 320.22 382.83 321.40" fill="white" fill-opacity="0.9"/>
<path d="M405.96 334.84Q402.83 334.84 401 333.02Q399.18 331.19 399.18 327.80L399.18 317.88Q399.18 314.49 401 312.66Q402.83 310.84 405.96 310.84Q409.10 310.84 410.92 312.66Q412.75 314.49 412.75 317.85L412.75 327.80Q412.75 331.19 410.92 333.02Q409.10 334.84 405.96 334.84M405.96 332.25Q407.85 332.25 408.86 331.18Q409.87 330.10 409.87 328.12L409.87 317.56Q409.87 315.58 408.86 314.50Q407.85 313.43 405.96 313.43Q404.11 313.43 403.08 314.50Q402.06 315.58 402.06 317.56L402.06 328.12Q402.06 330.10 403.08 331.18Q404.11 332.25 405.96 332.25" fill="white" fill-opacity="0.9"/>
<path d="M424.55 334.52L418.51 334.52L418.51 311.16L424.55 311.16Q426.83 311.16 428.47 312.02Q430.12 312.89 431.03 314.46Q431.95 316.02 431.95 318.17L431.95 327.48Q431.95 329.62 431.03 331.21Q430.12 332.79 428.47 333.66Q426.83 334.52 424.55 334.52M421.39 313.72L421.39 331.96L424.55 331.96Q426.67 331.96 427.87 330.78Q429.07 329.59 429.07 327.48L429.07 318.17Q429.07 316.09 427.87 314.90Q426.67 313.72 424.55 313.72" fill="white" fill-opacity="0.9"/>
<path d="M451.40 334.52L437.96 334.52L437.96 311.16L451.40 311.16L451.40 313.78L440.81 313.78L440.81 321.02L450.28 321.02L450.28 323.58L440.81 323.58L440.81 331.90L451.40 331.90" fill="white" fill-opacity="0.9"/>
<path d="M463.69 334.84Q460.30 334.84 458.28 333.05Q456.27 331.26 456.27 328.12L459.15 328.12Q459.15 330.07 460.39 331.18Q461.64 332.28 463.69 332.28Q465.67 332.28 466.86 331.13Q468.04 329.98 468.04 328.12Q468.04 326.71 467.29 325.67Q466.54 324.63 465.13 324.25L461.58 323.26Q459.37 322.62 458.11 320.97Q456.84 319.32 456.84 317.08Q456.84 315.22 457.67 313.82Q458.51 312.41 460.01 311.62Q461.51 310.84 463.47 310.84Q465.45 310.84 466.97 311.62Q468.49 312.41 469.35 313.80Q470.22 315.19 470.22 317.02L467.34 317.02Q467.34 315.42 466.25 314.41Q465.16 313.40 463.47 313.40Q461.77 313.40 460.71 314.41Q459.66 315.42 459.66 317.02Q459.66 318.30 460.35 319.21Q461.03 320.12 462.28 320.47L465.93 321.50Q468.27 322.14 469.56 323.91Q470.86 325.69 470.86 328.12Q470.86 331.19 468.91 333.02Q466.95 334.84 463.69 334.84" fill="white" fill-opacity="0.9"/>
</g>
<path d="M74.37 197.64L72.23 197.64L72.23 180.12L77.63 180.12Q79.19 180.12 80.37 180.76Q81.54 181.39 82.19 182.52Q82.84 183.65 82.84 185.16Q82.84 186.94 81.93 188.21Q81.02 189.48 79.50 189.98L83.08 197.64L80.70 197.64L77.27 190.20L74.37 190.20L74.37 197.64M74.37 182.06L74.37 188.26L77.63 188.26Q78.98 188.26 79.79 187.40Q80.61 186.55 80.61 185.16Q80.61 183.74 79.79 182.90Q78.98 182.06 77.63 182.06" fill="white" fill-opacity="0.7"/>
<path d="M96.88 197.64L86.80 197.64L86.80 180.12L96.88 180.12L96.88 182.09L88.94 182.09L88.94 187.51L96.04 187.51L96.04 189.43L88.94 189.43L88.94 195.67L96.88 195.67" fill="white" fill-opacity="0.7"/>
<path d="M106.10 197.88Q103.55 197.88 102.04 196.54Q100.53 195.19 100.53 192.84L102.69 192.84Q102.69 194.30 103.62 195.13Q104.56 195.96 106.10 195.96Q107.58 195.96 108.47 195.10Q109.36 194.23 109.36 192.84Q109.36 191.78 108.80 191Q108.23 190.22 107.18 189.94L104.51 189.19Q102.86 188.71 101.91 187.48Q100.96 186.24 100.96 184.56Q100.96 183.17 101.58 182.11Q102.21 181.06 103.34 180.47Q104.46 179.88 105.93 179.88Q107.42 179.88 108.56 180.47Q109.70 181.06 110.34 182.10Q110.99 183.14 110.99 184.51L108.83 184.51Q108.83 183.31 108.02 182.56Q107.20 181.80 105.93 181.80Q104.66 181.80 103.86 182.56Q103.07 183.31 103.07 184.51Q103.07 185.47 103.59 186.16Q104.10 186.84 105.04 187.10L107.78 187.87Q109.53 188.35 110.50 189.68Q111.47 191.02 111.47 192.84Q111.47 195.14 110.01 196.51Q108.54 197.88 106.10 197.88" fill="white" fill-opacity="0.7"/>
<path d="M121.48 197.64L119.32 197.64L119.32 182.09L114.52 182.09L114.52 180.12L126.28 180.12L126.28 182.09L121.48 182.09" fill="white" fill-opacity="0.7"/>
<path d="M145.41 197.64L143.20 197.64L147.76 180.12L150.66 180.12L155.20 197.64L153.02 197.64L151.86 192.98L146.56 192.98L145.41 197.64M148.34 185.74L146.99 191.16L151.41 191.16L150.06 185.76Q149.68 184.22 149.46 183.19Q149.25 182.16 149.20 181.85Q149.15 182.16 148.94 183.19Q148.72 184.22 148.34 185.74" fill="white" fill-opacity="0.7"/>
<path d="M160.77 197.64L158.61 197.64L158.61 180.12L164.25 180.12Q166.70 180.12 168.15 181.52Q169.60 182.93 169.60 185.28Q169.60 187.63 168.15 189.04Q166.70 190.44 164.25 190.44L160.77 190.44L160.77 197.64M160.77 182.06L160.77 188.50L164.25 188.50Q165.66 188.50 166.52 187.62Q167.37 186.74 167.37 185.28Q167.37 183.79 166.52 182.93Q165.66 182.06 164.25 182.06" fill="white" fill-opacity="0.7"/>
<path d="M182.68 197.64L173.32 197.64L173.32 195.67L176.90 195.67L176.90 182.09L173.32 182.09L173.32 180.12L182.68 180.12L182.68 182.09L179.10 182.09L179.10 195.67L182.68 195.67" fill="white" fill-opacity="0.7"/>
<path d="M207.33 197.83L206.27 197.83Q204.06 197.83 202.85 196.84Q201.64 195.84 201.64 194.02L203.80 194.02Q203.80 194.93 204.45 195.44Q205.10 195.96 206.27 195.96L207.33 195.96Q208.53 195.96 209.19 195.43Q209.85 194.90 209.85 193.94Q209.85 192.24 208.29 192.02L204.64 191.50Q203.30 191.30 202.55 190.38Q201.81 189.46 201.81 187.94Q201.81 186.22 203 185.23Q204.18 184.25 206.27 184.25L207.33 184.25Q209.25 184.25 210.46 185.20Q211.67 186.14 211.77 187.68L209.58 187.68Q209.54 186.98 208.92 186.53Q208.31 186.07 207.33 186.07L206.27 186.07Q205.17 186.07 204.54 186.58Q203.92 187.08 203.92 187.94Q203.92 189.34 205.19 189.53L208.60 190.01Q211.96 190.49 211.96 193.94Q211.96 195.79 210.75 196.81Q209.54 197.83 207.33 197.83" fill="white" fill-opacity="0.7"/>
<path d="M218.37 201.96L216.21 201.96L216.21 184.44L218.37 184.44L218.37 186.96L218.39 186.96Q218.56 185.66 219.52 184.93Q220.48 184.20 221.97 184.20Q223.96 184.20 225.14 185.51Q226.31 186.82 226.31 189.10L226.31 192.96Q226.31 195.24 225.14 196.56Q223.96 197.88 221.97 197.88Q220.48 197.88 219.52 197.14Q218.56 196.39 218.39 195.12L218.32 195.12L218.37 198.12L218.37 201.96M221.25 196.01Q222.62 196.01 223.38 195.29Q224.15 194.57 224.15 192.96L224.15 189.12Q224.15 187.49 223.38 186.78Q222.62 186.07 221.25 186.07Q219.93 186.07 219.15 186.91Q218.37 187.75 218.37 189.24L218.37 192.84Q218.37 194.33 219.15 195.17Q219.93 196.01 221.25 196.01" fill="white" fill-opacity="0.7"/>
<path d="M235.60 197.88Q233.27 197.88 231.84 196.48Q230.42 195.07 230.42 192.60L230.42 189.48Q230.42 187.01 231.84 185.60Q233.27 184.20 235.60 184.20Q237.16 184.20 238.32 184.82Q239.49 185.45 240.14 186.58Q240.78 187.70 240.78 189.24L240.78 191.59L232.53 191.59L232.53 192.84Q232.53 194.30 233.37 195.16Q234.21 196.01 235.60 196.01Q236.80 196.01 237.58 195.54Q238.36 195.07 238.53 194.28L240.69 194.28Q240.47 195.94 239.08 196.91Q237.69 197.88 235.60 197.88M232.53 189.24L232.53 189.91L238.67 189.91L238.67 189.24Q238.67 187.68 237.87 186.83Q237.06 185.98 235.60 185.98Q234.14 185.98 233.33 186.83Q232.53 187.68 232.53 189.24" fill="white" fill-opacity="0.7"/>
<path d="M250.19 197.88Q247.79 197.88 246.35 196.54Q244.91 195.19 244.91 192.84L244.91 189.24Q244.91 186.89 246.35 185.54Q247.79 184.20 250.19 184.20Q252.47 184.20 253.88 185.42Q255.28 186.65 255.35 188.76L253.19 188.76Q253.12 187.49 252.33 186.80Q251.54 186.12 250.19 186.12Q248.78 186.12 247.92 186.92Q247.07 187.73 247.07 189.22L247.07 192.84Q247.07 194.33 247.92 195.14Q248.78 195.96 250.19 195.96Q251.54 195.96 252.33 195.26Q253.12 194.57 253.19 193.32L255.35 193.32Q255.28 195.43 253.88 196.66Q252.47 197.88 250.19 197.88" fill="white" fill-opacity="0.7"/>
<path d="M270.52 197.64L259.24 197.64L259.24 195.67L263.92 195.67L263.92 186.41L259.72 186.41L259.72 184.44L266.08 184.44L266.08 195.67L270.52 195.67L270.52 197.64M264.76 182.06Q263.97 182.06 263.51 181.66Q263.06 181.25 263.06 180.55Q263.06 179.83 263.51 179.41Q263.97 178.99 264.76 178.99Q265.55 178.99 266.01 179.41Q266.46 179.83 266.46 180.55Q266.46 181.25 266.01 181.66Q265.55 182.06 264.76 182.06" fill="white" fill-opacity="0.7"/>
<path d="M278.92 197.64L276.76 197.64L276.76 188.21L272.92 188.21L272.92 186.24L276.76 186.24L276.76 183.48Q276.76 181.92 277.74 181.02Q278.73 180.12 280.46 180.12L284.32 180.12L284.32 182.09L280.46 182.09Q278.92 182.09 278.92 183.48L278.92 186.24L284.32 186.24L284.32 188.21L278.92 188.21" fill="white" fill-opacity="0.7"/>
<path d="M299.32 197.64L288.04 197.64L288.04 195.67L292.72 195.67L292.72 186.41L288.52 186.41L288.52 184.44L294.88 184.44L294.88 195.67L299.32 195.67L299.32 197.64M293.56 182.06Q292.77 182.06 292.31 181.66Q291.86 181.25 291.86 180.55Q291.86 179.83 292.31 179.41Q292.77 178.99 293.56 178.99Q294.35 178.99 294.81 179.41Q295.26 179.83 295.26 180.55Q295.26 181.25 294.81 181.66Q294.35 182.06 293.56 182.06" fill="white" fill-opacity="0.7"/>
<path d="M307.79 197.88Q305.39 197.88 303.95 196.54Q302.51 195.19 302.51 192.84L302.51 189.24Q302.51 186.89 303.95 185.54Q305.39 184.20 307.79 184.20Q310.07 184.20 311.48 185.42Q312.88 186.65 312.95 188.76L310.79 188.76Q310.72 187.49 309.93 186.80Q309.14 186.12 307.79 186.12Q306.38 186.12 305.52 186.92Q304.67 187.73 304.67 189.22L304.67 192.84Q304.67 194.33 305.52 195.14Q306.38 195.96 307.79 195.96Q309.14 195.96 309.93 195.26Q310.72 194.57 310.79 193.32L312.95 193.32Q312.88 195.43 311.48 196.66Q310.07 197.88 307.79 197.88" fill="white" fill-opacity="0.7"/>
<path d="M320.85 197.88Q318.81 197.88 317.61 196.74Q316.41 195.60 316.41 193.75Q316.41 192.53 316.96 191.62Q317.51 190.70 318.50 190.19Q319.48 189.67 320.75 189.67L324.83 189.67L324.83 188.64Q324.83 186.07 322.02 186.07Q320.78 186.07 320.01 186.53Q319.24 186.98 319.19 187.80L317.03 187.80Q317.15 186.24 318.48 185.22Q319.82 184.20 322.02 184.20Q324.42 184.20 325.71 185.35Q326.99 186.50 326.99 188.57L326.99 197.64L324.86 197.64L324.86 195.24L324.81 195.24Q324.62 196.46 323.58 197.17Q322.55 197.88 320.85 197.88M321.38 196.06Q322.96 196.06 323.90 195.29Q324.83 194.52 324.83 193.20L324.83 191.35L320.99 191.35Q319.94 191.35 319.28 191.99Q318.62 192.62 318.62 193.68Q318.62 194.78 319.35 195.42Q320.08 196.06 321.38 196.06" fill="white" fill-opacity="0.7"/>
<path d="M341.56 197.64L337.72 197.64Q336.09 197.64 335.10 196.69Q334.12 195.74 334.12 194.16L334.12 186.41L330.33 186.41L330.33 184.44L334.12 184.44L334.12 180.72L336.28 180.72L336.28 184.44L341.68 184.44L341.68 186.41L336.28 186.41L336.28 194.16Q336.28 194.83 336.68 195.25Q337.07 195.67 337.72 195.67L341.56 195.67" fill="white" fill-opacity="0.7"/>
<path d="M356.92 197.64L345.64 197.64L345.64 195.67L350.32 195.67L350.32 186.41L346.12 186.41L346.12 184.44L352.48 184.44L352.48 195.67L356.92 195.67L356.92 197.64M351.16 182.06Q350.37 182.06 349.91 181.66Q349.46 181.25 349.46 180.55Q349.46 179.83 349.91 179.41Q350.37 178.99 351.16 178.99Q351.95 178.99 352.41 179.41Q352.86 179.83 352.86 180.55Q352.86 181.25 352.41 181.66Q351.95 182.06 351.16 182.06" fill="white" fill-opacity="0.7"/>
<path d="M365.20 197.83Q362.82 197.83 361.42 196.44Q360.02 195.05 360.02 192.55L360.02 189.53Q360.02 187.01 361.41 185.63Q362.80 184.25 365.20 184.25Q367.60 184.25 368.99 185.63Q370.38 187.01 370.38 189.53L370.38 192.55Q370.38 195.05 368.98 196.44Q367.58 197.83 365.20 197.83M365.20 195.91Q366.62 195.91 367.42 195.12Q368.22 194.33 368.22 192.79L368.22 189.29Q368.22 187.75 367.42 186.96Q366.62 186.17 365.20 186.17Q363.81 186.17 362.99 186.96Q362.18 187.75 362.18 189.29L362.18 192.79Q362.18 194.33 362.99 195.12Q363.81 195.91 365.20 195.91" fill="white" fill-opacity="0.7"/>
<path d="M376.77 197.64L374.61 197.64L374.61 184.44L376.77 184.44L376.77 186.96L376.79 186.96Q376.96 185.64 377.87 184.92Q378.78 184.20 380.30 184.20Q382.29 184.20 383.46 185.42Q384.64 186.65 384.64 188.76L384.64 197.64L382.48 197.64L382.48 189.14Q382.48 187.63 381.72 186.83Q380.97 186.02 379.67 186.02Q378.33 186.02 377.55 186.86Q376.77 187.70 376.77 189.24" fill="white" fill-opacity="0.7"/>
<path d="M408.52 197.64L406.36 197.64L406.36 188.21L402.52 188.21L402.52 186.24L406.36 186.24L406.36 183.48Q406.36 181.92 407.34 181.02Q408.33 180.12 410.06 180.12L413.92 180.12L413.92 182.09L410.06 182.09Q408.52 182.09 408.52 183.48L408.52 186.24L413.92 186.24L413.92 188.21L408.52 188.21" fill="white" fill-opacity="0.7"/>
<path d="M422.80 197.83Q420.42 197.83 419.02 196.44Q417.62 195.05 417.62 192.55L417.62 189.53Q417.62 187.01 419.01 185.63Q420.40 184.25 422.80 184.25Q425.20 184.25 426.59 185.63Q427.98 187.01 427.98 189.53L427.98 192.55Q427.98 195.05 426.58 196.44Q425.18 197.83 422.80 197.83M422.80 195.91Q424.22 195.91 425.02 195.12Q425.82 194.33 425.82 192.79L425.82 189.29Q425.82 187.75 425.02 186.96Q424.22 186.17 422.80 186.17Q421.41 186.17 420.59 186.96Q419.78 187.75 419.78 189.29L419.78 192.79Q419.78 194.33 420.59 195.12Q421.41 195.91 422.80 195.91" fill="white" fill-opacity="0.7"/>
<path d="M434.85 197.64L432.69 197.64L432.69 184.44L434.85 184.44L434.85 186.96L434.90 186.96Q435.06 185.69 435.98 184.94Q436.89 184.20 438.42 184.20Q440.49 184.20 441.60 185.44Q442.72 186.67 442.72 188.95L442.72 190.08L440.56 190.08L440.56 188.95Q440.56 186.07 437.75 186.07Q436.34 186.07 435.59 186.89Q434.85 187.70 434.85 189.24" fill="white" fill-opacity="0.7"/>
<path d="M462.21 197.64L460 197.64L464.56 180.12L467.46 180.12L472 197.64L469.82 197.64L468.66 192.98L463.36 192.98L462.21 197.64M465.14 185.74L463.79 191.16L468.21 191.16L466.86 185.76Q466.48 184.22 466.26 183.19Q466.05 182.16 466 181.85Q465.95 182.16 465.74 183.19Q465.52 184.22 465.14 185.74" fill="white" fill-opacity="0.7"/>
<path d="M481.17 197.88Q479.68 197.88 478.72 197.15Q477.76 196.42 477.59 195.12L477.57 195.12L477.57 197.64L475.41 197.64L475.41 180.12L477.57 180.12L477.57 183.96L477.52 186.96L477.54 186.96Q477.74 185.69 478.71 184.94Q479.68 184.20 481.17 184.20Q483.16 184.20 484.34 185.52Q485.51 186.84 485.51 189.12L485.51 192.98Q485.51 195.24 484.34 196.56Q483.16 197.88 481.17 197.88M480.45 196.01Q481.82 196.01 482.58 195.29Q483.35 194.57 483.35 192.96L483.35 189.12Q483.35 187.49 482.58 186.78Q481.82 186.07 480.45 186.07Q479.13 186.07 478.35 186.91Q477.57 187.75 477.57 189.24L477.57 192.84Q477.57 194.33 478.35 195.17Q479.13 196.01 480.45 196.01" fill="white" fill-opacity="0.7"/>
<path d="M500.80 197.64L496.72 197.64Q494.97 197.64 493.92 196.62Q492.88 195.60 492.88 193.92L492.88 182.09L488.32 182.09L488.32 180.12L495.04 180.12L495.04 193.92Q495.04 194.74 495.50 195.20Q495.95 195.67 496.72 195.67L500.80 195.67" fill="white" fill-opacity="0.7"/>
<path d="M508.53 201.96L506.27 201.96L508.22 196.82L503.30 184.44L505.62 184.44L508.74 192.60Q508.94 193.08 509.10 193.61Q509.27 194.14 509.34 194.52Q509.42 194.14 509.58 193.61Q509.75 193.08 509.92 192.60L512.82 184.44L515.10 184.44" fill="white" fill-opacity="0.7"/>
<path d="M523.60 197.88Q522.71 197.88 522.17 197.35Q521.63 196.82 521.63 195.98Q521.63 195.10 522.17 194.54Q522.71 193.99 523.60 193.99Q524.49 193.99 525.03 194.54Q525.57 195.10 525.57 195.98Q525.57 196.82 525.03 197.35Q524.49 197.88 523.60 197.88" fill="white" fill-opacity="0.7"/>
<path d="M76.11 136.06L66.42 136.06L84.56 65.98L97.14 65.98L115.18 136.06L105.49 136.06L101.07 117.82L80.53 117.82L76.11 136.06M87.54 88.92L82.45 109.95L99.15 109.95L94.16 89.02Q92.72 83.26 91.86 79.23Q90.99 75.20 90.80 73.76Q90.61 75.20 89.74 79.23Q88.88 83.26 87.54 88.92M149.74 136.06L128.14 136.06L128.14 65.98L148.40 65.98Q158.10 65.98 163.71 70.83Q169.33 75.68 169.33 84.12Q169.33 89.60 165.92 93.87Q162.51 98.14 157.14 99.10L157.14 99.39Q161.17 99.87 164.29 102.27Q167.41 104.67 169.18 108.36Q170.96 112.06 170.96 116.48Q170.96 125.50 165.25 130.78Q159.54 136.06 149.74 136.06M137.46 74.33L137.46 95.55L148.30 95.55Q153.68 95.55 156.75 92.72Q159.82 89.88 159.82 84.99Q159.82 80 156.75 77.16Q153.68 74.33 148.40 74.33L137.46 74.33M137.46 103.61L137.46 127.71L148.88 127.71Q154.74 127.71 158.10 124.59Q161.46 121.47 161.46 116.09Q161.46 110.52 158.10 107.07Q154.74 103.61 148.88 103.61L137.46 103.61M230.19 136.06L189.49 136.06L189.49 65.98L198.99 65.98L198.99 127.42L230.19 127.42L230.19 136.06M268.40 136.06L258.90 136.06L258.90 110.04L237.87 65.98L247.95 65.98L260.91 93.63Q262.06 96.12 262.78 98.14Q263.50 100.16 263.70 101.02Q263.98 100.16 264.70 98.14Q265.42 96.12 266.67 93.63L279.54 65.98L289.33 65.98L268.40 110.04L268.40 136.06M367.95 136.06L358.45 136.06L358.45 65.98L381.20 65.98Q387.92 65.98 392.82 68.57Q397.71 71.16 400.40 75.82Q403.09 80.48 403.09 86.91Q403.09 93.24 400.40 97.90Q397.71 102.56 392.77 105.15Q387.82 107.74 381.20 107.74L367.95 107.74L367.95 136.06M367.95 74.43L367.95 99.29L381.20 99.29Q386.77 99.29 390.03 95.88Q393.30 92.48 393.30 86.91Q393.30 81.24 390.03 77.84Q386.77 74.43 381.20 74.43L367.95 74.43M460.59 136.06L419.89 136.06L419.89 65.98L429.39 65.98L429.39 127.42L460.59 127.42L460.59 136.06M479.31 136.06L469.62 136.06L487.76 65.98L500.34 65.98L518.38 136.06L508.69 136.06L504.27 117.82L483.73 117.82L479.31 136.06M490.74 88.92L485.65 109.95L502.35 109.95L497.36 89.02Q495.92 83.26 495.06 79.23Q494.19 75.20 NaN 73.76Q493.81 75.20 492.94 79.23Q492.08 83.26 490.74 88.92M556.40 136.06L546.90 136.06L546.90 74.62L527.89 74.62L527.89 65.98L575.31 65.98L575.31 74.62L556.40 74.62L556.40 136.06M598.64 136.06L589.14 136.06L589.14 65.98L630.99 65.98L630.99 74.72L598.45 74.72L598.45 96.80L628.50 96.80L628.50 105.44L598.64 105.44L598.64 136.06M666.80 137.02Q657.20 137.02 651.63 131.45Q646.06 125.88 646.06 115.71L646.06 86.24Q646.06 76.16 651.63 70.59Q657.20 65.02 666.80 65.02Q676.40 65.02 681.97 70.54Q687.54 76.06 687.54 86.24L687.54 115.71Q687.54 125.88 681.97 131.45Q676.40 137.02 666.80 137.02M666.80 128.57Q672.18 128.57 675.10 125.50Q678.03 122.43 678.03 116.67L678.03 85.28Q678.03 79.61 675.15 76.54Q672.27 73.47 666.80 73.47Q661.33 73.47 658.45 76.54Q655.57 79.61 655.57 85.28L655.57 116.67Q655.57 122.43 658.50 125.50Q661.42 128.57 666.80 128.57M713.55 136.06L704.14 136.06L704.14 65.98L725.84 65.98Q732.27 65.98 737.07 68.52Q741.87 71.07 744.56 75.63Q747.25 80.19 747.25 86.33Q747.25 93.44 743.65 98.52Q740.05 103.61 734.10 105.72L748.21 136.06L737.74 136.06L724.40 106.78L713.55 106.78L713.55 136.06M713.55 74.43L713.55 98.33L725.84 98.33Q731.22 98.33 734.34 95.07Q737.46 91.80 737.46 86.43Q737.46 80.96 734.29 77.69Q731.12 74.43 725.84 74.43L713.55 74.43M768.75 136.06L759.73 136.06L759.73 65.98L773.17 65.98L781.81 96.22L790.83 65.98L804.37 65.98L804.37 136.06L795.25 136.06L795.25 103.90Q795.25 98.81 795.44 92.62Q795.63 86.43 795.97 80.24Q796.30 74.04 796.69 69.05L785.74 104.96L777.68 104.96L767.12 69.92Q767.98 76.92 768.37 85.52Q768.75 94.11 768.75 103.90" fill="url(#paint2_linear_0_1)"/>
<g id="Group 1">
<rect id="Rectangle 1" x="26" y="168" width="12" height="184" rx="5" fill="url(#paint3_linear_0_1)" fill-opacity="0.9"/>
</g>
<g id="Group 1_2">
<rect id="Rectangle 2" x="26" y="38" width="12" height="119" rx="5" fill="url(#paint4_linear_0_1)" fill-opacity="0.9"/>
</g>
<ellipse id="Ellipse 1" cx="148.5" cy="573" rx="215.5" ry="214" fill="url(#paint5_linear_0_1)" fill-opacity="0.4"/>
<rect id="Rectangle 3" x="1229" y="48" width="300" height="300" rx="25" fill="#FFFBFB" fill-opacity="0.9"/>
<g id="placeholder-logo"><g transform="translate(1229,48) translate(0.0,60.0) scale(1.2000)"><g fill="#666666">
  <path d="m88.05,27.65c-3.15,4 -3.2,51.2 -0.05,54.35c2.75,2.75 71.7,3.15 74.45,0.45c2.85,-2.9 2.3,-53.85 -0.65,-55.9c-1.95,-1.35 -7.15,-1.55 -36.95,-1.55l-34.7,0l-2.1,2.65zm69.45,3.35c0.65,0 1,8.6 1,23.75l0,23.75l-33,0l-33,0l-0.25,-23c-0.15,-12.6 -0.1,-23.45 0.15,-24.1c0.35,-0.85 8.9,-1.05 32.25,-0.75c17.55,0.2 32.3,0.35 32.85,0.35z"/>
  <path d="m99.15,37.3c-6.85,7.35 4.25,17.35 11.4,10.25c1.35,-1.35 2.45,-3.65 2.45,-5.05c0,-6.45 -9.35,-9.95 -13.85,-5.2z"/>
  <path d="m135,42.5c-0.7,0.85 -5.25,5.15 -10.1,9.6l-8.85,8.1l-3.2,-3.2l-3.15,-3.15l-6.35,6.3c-5.55,5.5 -6.35,6.75 -6.35,10.05l0,3.8l28.5,0l28.5,0l0,-8.6l0,-8.55l-8.15,-7.7c-9.35,-8.85 -9.15,-8.7 -10.85,-6.65zm7.25,15.2c0.95,0.9 1.75,2.9 1.75,4.45c6.35,-5.05 4.75,-7.15 4.9,-11.55c0.95,0 0,0 0,0l-6.65,7.1z"/>
  <path d="m53.65,110.75c0.1,4.8 0.45,8.65 0.75,8.5c0.35,-0.15 1.3,-0.25 2.1,-0.25c1.1,0 1.5,-1.2 1.5,-4.75l0,-4.75l3.25,5c4.9,7.5 6.2,6.75 6.55,-3.75c0.25,-8.15 0.15,-8.75 -1.7,-8.75c-1.65,0 -2.05,0.8 -2.3,4.75l-0.3,4.75l-2.8,-4.75c-4.85,-8.25 -7.25,-6.9 -7.05,4z"/>
  <path d="m91,108.9c0,9.65 0.3,10.1 6.1,10.1c5.8,0 7.15,-2.65 1.65,-3.2l-3.25,-0.3l-0.3,-6.75c-0.25,-5.95 -0.55,-6.75 -2.25,-6.75c-1.75,0 -1.95,0.7 -1.95,6.9z"/>
  <path d="m151,102.45c0,0.25 1,2.15 2.25,4.2c1.2,2.1 2.45,5.8 2.75,8.25c0.65,5.9 4,6.95 4,1.25c0.05,-2.1 1.25,-5.85 2.95,-8.9l2.9,-5.25l-2.5,0c-1.8,0 -2.8,0.85 -3.75,3.1l-1.3,3.05l-1.25,-3.05c-1.1,-2.6 -6.05,-4.8 -6.05,-2.65z"/>
  <path d="m191,107.45c0,9.05 3.4,8.85 4.25,-0.2c0.45,-5 0.35,-5.25 -1.9,-5.25c-2.2,0 -2.35,0.4 -2.35,5.45z"/>
  <path d="m180.8,104.75c-1.3,5.35 0.65,13.6 3.45,14.35c2.3,0.6 2.75,0.4 2.75,-1.2c0,-1.05 -0.45,-1.9 -1,-1.9c-0.55,0 -1,-1.6 -1,-3.5c0,-1.95 0.45,-3.5 1,-3.5c0.55,0 1,-0.7 1,-1.5c0,-0.85 -0.45,-1.5 -1,-1.5c-0.55,0 -1,-0.7 -1,-1.5c0,-2.1 -3.65,-1.9 -4.2,0.25z"/>
  <path d="m71.55,106.55c-2.2,2.25 -2.05,9.7 0.3,11.8c4.5,4.1 10.15,0.75 10.15,-6.1c0,-4.85 -2,-7.25 -6,-7.25c-1.55,0 -3.55,0.7 -4.45,1.55zm6.25,5.8c0.25,3.05 0,3.65 -1.6,3.65c-2.3,0 -3.25,-2.65 -2.05,-5.85c1.25,-3.35 3.3,-2.1 3.65,2.2z"/>
  <path d="m105.75,106.1c-2.5,1.45 -2.45,9.95 0.1,12.25c4.3,3.9 10.15,0.35 10.15,-6.2c0,-6 -5.15,-9.05 -10.25,-6.05zm6.05,6.25c0.25,3.05 0,3.65 -1.6,3.65c-2.3,0 -3.25,-2.65 -2.05,-5.85c1.25,-3.35 3.3,-2.1 3.65,2.2z"/>
  <path d="m119.2,106.2c-3.8,3.8 -0.4,12.55 4.4,11.35c1.9,-0.45 2.45,-0.3 2.15,0.65c-0.25,0.7 -1.55,1.2 -2.85,1.1c-4.05,-0.3 -5.35,0.45 -3.85,2.25c0.85,1.05 2.6,1.45 5.35,1.25l4.1,-0.3l0.3,-8.75l0.3,-8.75l-4.35,0c-2.4,0 -4.9,0.55 -5.55,1.2zm6.6,4.45c0.4,2.85 -2.15,4.85 -3.75,2.95c-0.9,-1.1 -0.9,-2 -0.05,-3.6c1.35,-2.5 3.4,-2.15 3.8,0.65z"/>
  <path d="m133.55,106.55c-2.2,2.25 -2.05,9.7 0.3,11.8c4.5,4.1 10.15,0.75 10.15,-6.1c0,-4.85 -2,-7.25 -6,-7.25c-1.55,0 -3.55,0.7 -4.45,1.55zm6.25,5.8c0.25,3.05 0,3.65 -1.6,3.65c-2.3,0 -3.25,-2.65 -2.05,-5.85c1.25,-3.35 3.3,-2.1 3.65,2.2z"/>
  <path d="m167.65,106.85c-3.9,4.3 -0.75,13.15 4.7,13.15c2.4,0 5.65,-2.75 5.65,-4.85c0,-1.4 -2.65,-1.55 -3.5,-0.15c-0.95,1.55 -4.5,1.15 -4.5,-0.5c0,-1.1 1.1,-1.5 4,-1.5c3.15,0 4,-0.35 4,-1.8c0,-5.3 -6.85,-8.25 -10.35,-4.35z"/>
  <path d="m191,117.5c0,2.15 0.4,2.6 2.25,2.3c1.5,-0.2 2.25,-1 2.25,-2.3c0,-1.3 -0.75,-2.1 -2.25,-2.3c-1.85,-0.3 -2.25,0.15 -2.25,2.3z"/>
 </g></g></g>
</g>
<defs>
<linearGradient id="paint0_linear_0_1" x1="0" y1="198" x2="1584" y2="198" gradientUnits="userSpaceOnUse">
<stop stop-color="#3D052C"/>
<stop offset="1"/>
</linearGradient>
<linearGradient id="paint1_linear_0_1" x1="323" y1="-224" x2="323" y2="352" gradientUnits="userSpaceOnUse">
<stop stop-color="#28F6F2" stop-opacity="0.4"/>
<stop offset="1" stop-color="#17908E" stop-opacity="0.7"/>
</linearGradient>
<linearGradient id="paint2_linear_0_1" x1="148.5" y1="38" x2="148.5" y2="140" gradientUnits="userSpaceOnUse">
<stop stop-color="white"/>
<stop offset="1" stop-color="#999999"/>
</linearGradient>
<linearGradient id="paint3_linear_0_1" x1="38" y1="260" x2="26" y2="260" gradientUnits="userSpaceOnUse">
<stop stop-color="#D9D9D9"/>
<stop offset="1" stop-color="#737373"/>
</linearGradient>
<linearGradient id="paint4_linear_0_1" x1="38" y1="97.5" x2="26" y2="97.5" gradientUnits="userSpaceOnUse">
<stop stop-color="#D9D9D9"/>
<stop offset="1" stop-color="#737373"/>
</linearGradient>
<linearGradient id="paint5_linear_0_1" x1="27.5" y1="434.5" x2="148.5" y2="787" gradientUnits="userSpaceOnUse">
<stop stop-color="#2E21BC"/>
<stop offset="1" stop-color="#150F56"/>
</linearGradient>
<clipPath id="clip0_0_1">
<rect width="1584" height="396" fill="white"/>
</clipPath>
</defs>
</svg>
