<svg width="1584" height="396" viewBox="0 0 1584 396" fill="none" xmlns="http://www.w3.org/2000/svg">
<rect width="1584" height="396" fill="#F5F5F5"/>
<g id="Awesome banner" clip-path="url(#clip0_0_1)">
<rect width="1584" height="396" fill="url(#paint0_linear_0_1)"/>
<ellipse id="Ellipse 2" cx="323" cy="64" rx="285" ry="288" fill="url(#paint1_linear_0_1)" fill-opacity="0.1"/>
<g id="copyright">
<path d="M75.95 334.52L72.30 334.52L72.30 311.16L77.20 311.16L83.70 330.04Q83.60 329.02 83.50 327.62Q83.41 326.23 83.33 324.79Q83.25 323.35 83.25 322.23L83.25 311.16L86.90 311.16L86.90 334.52L82 334.52L75.57 315.64Q75.63 316.57 75.73 317.88Q75.82 319.19 75.89 320.57Q75.95 321.94 75.95 323.10L75.95 334.52M98.80 334.84Q96.46 334.84 94.67 333.96Q92.88 333.08 91.89 331.53Q90.90 329.98 90.90 327.93Q90.90 325.78 92.13 324.18Q93.36 322.58 95.34 322.17L95.34 322.10Q93.65 321.75 92.61 320.38Q91.57 319 91.57 317.11Q91.57 315.26 92.48 313.85Q93.39 312.44 95.02 311.64Q96.66 310.84 98.80 310.84Q100.94 310.84 102.59 311.64Q104.24 312.44 105.15 313.85Q106.06 315.26 106.06 317.11Q106.06 319 105.01 320.38Q103.95 321.75 102.26 322.10L102.26 322.17Q104.24 322.58 105.47 324.18Q106.70 325.78 106.70 327.93Q106.70 329.98 105.71 331.53Q104.72 333.08 102.93 333.96Q101.14 334.84 98.80 334.84M98.80 320.73Q100.30 320.73 101.23 319.82Q102.16 318.90 102.16 317.46Q102.16 315.99 101.23 315.08Q100.30 314.17 98.80 314.17Q97.30 314.17 96.37 315.08Q95.44 315.99 95.44 317.46Q95.44 318.90 96.37 319.82Q97.30 320.73 98.80 320.73M98.80 331.45Q100.56 331.45 101.68 330.42Q102.80 329.40 102.80 327.74Q102.80 326.04 101.68 325Q100.56 323.96 98.80 323.96Q97.04 323.96 95.92 325Q94.80 326.04 94.80 327.74Q94.80 329.40 95.92 330.42Q97.04 331.45 98.80 331.45M114.35 334.52L110.70 334.52L110.70 311.16L115.60 311.16L122.10 330.04Q122 329.02 121.90 327.62Q121.81 326.23 121.73 324.79Q121.65 323.35 121.65 322.23L121.65 311.16L125.30 311.16L125.30 334.52L120.40 334.52L113.97 315.64Q114.03 316.57 114.13 317.88Q114.22 319.19 114.29 320.57Q114.35 321.94 114.35 323.10" fill="white" fill-opacity="0.9"/>
<path d="M161.48 325.24L151.24 325.24L151.24 322.68L161.48 322.68" fill="white" fill-opacity="0.9"/>
<path d="M195.02 334.84Q191.82 334.84 189.96 333.05Q188.11 331.26 188.11 328.12L188.11 317.56Q188.11 314.42 189.96 312.63Q191.82 310.84 195.02 310.84Q198.15 310.84 200.01 312.65Q201.87 314.46 201.87 317.56L198.99 317.56Q198.99 315.58 197.95 314.50Q196.91 313.43 195.02 313.43Q193.13 313.43 192.06 314.50Q190.99 315.58 190.99 317.56L190.99 328.12Q190.99 330.10 192.06 331.18Q193.13 332.25 195.02 332.25Q196.91 332.25 197.95 331.18Q198.99 330.10 198.99 328.12L201.87 328.12Q201.87 331.22 200.01 333.03Q198.15 334.84 195.02 334.84" fill="white" fill-opacity="0.9"/>
<path d="M213.96 334.84Q210.83 334.84 209 333.02Q207.18 331.19 207.18 327.80L207.18 317.88Q207.18 314.49 209 312.66Q210.83 310.84 213.96 310.84Q217.10 310.84 218.92 312.66Q220.75 314.49 220.75 317.85L220.75 327.80Q220.75 331.19 218.92 333.02Q217.10 334.84 213.96 334.84M213.96 332.25Q215.85 332.25 216.86 331.18Q217.87 330.10 217.87 328.12L217.87 317.56Q217.87 315.58 216.86 314.50Q215.85 313.43 213.96 313.43Q212.11 313.43 211.08 314.50Q210.06 315.58 210.06 317.56L210.06 328.12Q210.06 330.10 211.08 331.18Q212.11 332.25 213.96 332.25" fill="white" fill-opacity="0.9"/>
<path d="M228.65 334.52L225.87 334.52L225.87 311.16L230.12 311.16L233.10 321.27L236.20 311.16L240.46 311.16L240.46 334.52L237.67 334.52L237.67 323.48Q237.67 321.91 237.72 319.88Q237.77 317.85 237.87 315.77Q237.96 313.69 238.09 312.02L234.31 324.09L231.82 324.09L228.20 312.31Q228.46 314.68 228.55 317.50Q228.65 320.31 228.65 323.48" fill="white" fill-opacity="0.9"/>
<path d="M247.85 334.52L245.07 334.52L245.07 311.16L249.32 311.16L252.30 321.27L255.40 311.16L259.66 311.16L259.66 334.52L256.87 334.52L256.87 323.48Q256.87 321.91 256.92 319.88Q256.97 317.85 257.07 315.77Q257.16 313.69 257.29 312.02L253.51 324.09L251.02 324.09L247.40 312.31Q247.66 314.68 247.75 317.50Q247.85 320.31 247.85 323.48" fill="white" fill-opacity="0.9"/>
<path d="M271.56 334.84Q268.30 334.84 266.57 333.03Q264.84 331.22 264.84 328.12L264.84 311.16L267.72 311.16L267.72 328.12Q267.72 330.04 268.67 331.16Q269.61 332.28 271.56 332.28Q273.48 332.28 274.44 331.16Q275.40 330.04 275.40 328.12L275.40 311.16L278.28 311.16L278.28 328.12Q278.28 331.26 276.57 333.05Q274.86 334.84 271.56 334.84" fill="white" fill-opacity="0.9"/>
<path d="M286.83 334.52L284.04 334.52L284.04 311.16L287.88 311.16L295.02 331.16Q294.95 330.36 294.87 329.19Q294.79 328.02 294.75 326.73Q294.70 325.43 294.70 324.28L294.70 311.16L297.48 311.16L297.48 334.52L293.64 334.52L286.54 314.52Q286.60 315.29 286.67 316.46Q286.73 317.62 286.78 318.92Q286.83 320.22 286.83 321.40" fill="white" fill-opacity="0.9"/>
<path d="M316.20 334.52L303.72 334.52L303.72 331.90L308.49 331.90L308.49 313.78L303.72 313.78L303.72 311.16L316.20 311.16L316.20 313.78L311.43 313.78L311.43 331.90L316.20 331.90" fill="white" fill-opacity="0.9"/>
<path d="M330.60 334.52L327.72 334.52L327.72 313.78L321.32 313.78L321.32 311.16L337 311.16L337 313.78L330.60 313.78" fill="white" fill-opacity="0.9"/>
<path d="M349.80 334.52L346.92 334.52L346.92 325.78L339.88 311.16L342.95 311.16L347.50 320.76Q347.88 321.56 348.11 322.12Q348.33 322.68 348.39 322.94Q348.46 322.68 348.70 322.12Q348.94 321.56 349.32 320.76L353.87 311.16L356.84 311.16L349.80 325.78" fill="white" fill-opacity="0.9"/>
<path d="M382.83 334.52L380.04 334.52L380.04 311.16L383.88 311.16L391.02 331.16Q390.95 330.36 390.87 329.19Q390.79 328.02 390.75 326.73Q390.70 325.43 390.70 324.28L390.70 311.16L393.48 311.16L393.48 334.52L389.64 334.52L382.54 314.52Q382.60 315.29 382.67 316.46Q382.73 317.62 382.78 318.92Q382.83 320.22 382.83 321.40" fill="white" fill-opacity="0.9"/>
<path d="M405.96 334.84Q402.83 334.84 401 333.02Q399.18 331.19 399.18 327.80L399.18 317.88Q399.18 314.49 401 312.66Q402.83 310.84 405.96 310.84Q409.10 310.84 410.92 312.66Q412.75 314.49 412.75 317.85L412.75 327.80Q412.75 331.19 410.92 333.02Q409.10 334.84 405.96 334.84M405.96 332.25Q407.85 332.25 408.86 331.18Q409.87 330.10 409.87 328.12L409.87 317.56Q409.87 315.58 408.86 314.50Q407.85 313.43 405.96 313.43Q404.11 313.43 403.08 314.50Q402.06 315.58 402.06 317.56L402.06 328.12Q402.06 330.10 403.08 331.18Q404.11 332.25 405.96 332.25" fill="white" fill-opacity="0.9"/>
<path d="M424.55 334.52L418.51 334.52L418.51 311.16L424.55 311.16Q426.83 311.16 428.47 312.02Q430.12 312.89 431.03 314.46Q431.95 316.02 431.95 318.17L431.95 327.48Q431.95 329.62 431.03 331.21Q430.12 332.79 428.47 333.66Q426.83 334.52 424.55 334.52M421.39 313.72L421.39 331.96L424.55 331.96Q426.67 331.96 427.87 330.78Q429.07 329.59 429.07 327.48L429.07 318.17Q429.07 316.09 427.87 314.90Q426.67 313.72 424.55 313.72" fill="white" fill-opacity="0.9"/>
<path d="M451.40 334.52L437.96 334.52L437.96 311.16L451.40 311.16L451.40 313.78L440.81 313.78L440.81 321.02L450.28 321.02L450.28 323.58L440.81 323.58L440.81 331.90L451.40 331.90" fill="white" fill-opacity="0.9"/>
<path d="M463.69 334.84Q460.30 334.84 458.28 333.05Q456.27 331.26 456.27 328.12L459.15 328.12Q459.15 330.07 460.39 331.18Q461.64 332.28 463.69 332.28Q465.67 332.28 466.86 331.13Q468.04 329.98 468.04 328.12Q468.04 326.71 467.29 325.67Q466.54 324.63 465.13 324.25L461.58 323.26Q459.37 322.62 458.11 320.97Q456.84 319.32 456.84 317.08Q456.84 315.22 457.67 313.82Q458.51 312.41 460.01 311.62Q461.51 310.84 463.47 310.84Q465.45 310.84 466.97 311.62Q468.49 312.41 469.35 313.80Q470.22 315.19 470.22 317.02L467.34 317.02Q467.34 315.42 466.25 314.41Q465.16 313.40 463.47 313.40Q461.77 313.40 460.71 314.41Q459.66 315.42 459.66 317.02Q459.66 318.30 460.35 319.21Q461.03 320.12 462.28 320.47L465.93 321.50Q468.27 322.14 469.56 323.91Q470.86 325.69 470.86 328.12Q470.86 331.19 468.91 333.02Q466.95 334.84 463.69 334.84" fill="white" fill-opacity="0.9"/>
</g>
<path d="M73.41 197.64L71.20 197.64L75.76 180.12L78.66 180.12L83.20 197.64L81.02 197.64L79.86 192.98L74.56 192.98L73.41 197.64M76.34 185.74L74.99 191.16L79.41 191.16L78.06 185.76Q77.68 184.22 77.46 183.19Q77.25 182.16 77.20 181.85Q77.15 182.16 76.94 183.19Q76.72 184.22 76.34 185.74" fill="white" fill-opacity="0.7"/>
<path d="M92.37 197.88Q90.88 197.88 89.92 197.15Q88.96 196.42 88.79 195.12L88.77 195.12L88.77 197.64L86.61 197.64L86.61 180.12L88.77 180.12L88.77 183.96L88.72 186.96L88.74 186.96Q88.94 185.69 89.91 184.94Q90.88 184.20 92.37 184.20Q94.36 184.20 95.54 185.52Q96.71 186.84 96.71 189.12L96.71 192.98Q96.71 195.24 95.54 196.56Q94.36 197.88 92.37 197.88M91.65 196.01Q93.02 196.01 93.78 195.29Q94.55 194.57 94.55 192.96L94.55 189.12Q94.55 187.49 93.78 186.78Q93.02 186.07 91.65 186.07Q90.33 186.07 89.55 186.91Q88.77 187.75 88.77 189.24L88.77 192.84Q88.77 194.33 89.55 195.17Q90.33 196.01 91.65 196.01" fill="white" fill-opacity="0.7"/>
<path d="MNaN 197.64L107.92 197.64Q106.17 197.64 105.12 196.62Q104.08 195.60 104.08 193.92L104.08 182.09L99.52 182.09L99.52 180.12L106.24 180.12L106.24 193.92Q106.24 194.74 106.70 195.20Q107.15 195.67 107.92 195.67LNaN 195.67" fill="white" fill-opacity="0.7"/>
<path d="M119.73 201.96L117.47 201.96L119.42 196.82L114.50 184.44L116.82 184.44L119.94 192.60Q120.14 193.08 120.30 193.61Q120.47 194.14 120.54 194.52Q120.62 194.14 120.78 193.61Q120.95 193.08 121.12 192.60L124.02 184.44L126.30 184.44" fill="white" fill-opacity="0.7"/>
<path d="M146.37 197.64L144.23 197.64L144.23 180.12L149.63 180.12Q151.19 180.12 152.37 180.76Q153.54 181.39 154.19 182.52Q154.84 183.65 154.84 185.16Q154.84 186.94 153.93 188.21Q153.02 189.48 151.50 189.98L155.08 197.64L152.70 197.64L149.27 190.20L146.37 190.20L146.37 197.64M146.37 182.06L146.37 188.26L149.63 188.26Q150.98 188.26 151.79 187.40Q152.61 186.55 152.61 185.16Q152.61 183.74 151.79 182.90Q150.98 182.06 149.63 182.06" fill="white" fill-opacity="0.7"/>
<path d="M168.88 197.64L158.80 197.64L158.80 180.12L168.88 180.12L168.88 182.09L160.94 182.09L160.94 187.51L168.04 187.51L168.04 189.43L160.94 189.43L160.94 195.67L168.88 195.67" fill="white" fill-opacity="0.7"/>
<path d="M178.10 197.88Q175.55 197.88 174.04 196.54Q172.53 195.19 172.53 192.84L174.69 192.84Q174.69 194.30 175.62 195.13Q176.56 195.96 178.10 195.96Q179.58 195.96 180.47 195.10Q181.36 194.23 181.36 192.84Q181.36 191.78 180.80 191Q180.23 190.22 179.18 189.94L176.51 189.19Q174.86 188.71 173.91 187.48Q172.96 186.24 172.96 184.56Q172.96 183.17 173.58 182.11Q174.21 181.06 175.34 180.47Q176.46 179.88 177.93 179.88Q179.42 179.88 180.56 180.47Q181.70 181.06 182.34 182.10Q182.99 183.14 182.99 184.51L180.83 184.51Q180.83 183.31 180.02 182.56Q179.20 181.80 177.93 181.80Q176.66 181.80 175.86 182.56Q175.07 183.31 175.07 184.51Q175.07 185.47 175.59 186.16Q176.10 186.84 177.04 187.10L179.78 187.87Q181.53 188.35 182.50 189.68Q183.47 191.02 183.47 192.84Q183.47 195.14 182.01 196.51Q180.54 197.88 178.10 197.88" fill="white" fill-opacity="0.7"/>
<path d="M193.48 197.64L191.32 197.64L191.32 182.09L186.52 182.09L186.52 180.12L198.28 180.12L198.28 182.09L193.48 182.09" fill="white" fill-opacity="0.7"/>
<path d="M217.41 197.64L215.20 197.64L219.76 180.12L222.66 180.12L227.20 197.64L225.02 197.64L223.86 192.98L218.56 192.98L217.41 197.64M220.34 185.74L218.99 191.16L223.41 191.16L222.06 185.76Q221.68 184.22 221.46 183.19Q221.25 182.16 221.20 181.85Q221.15 182.16 220.94 183.19Q220.72 184.22 220.34 185.74" fill="white" fill-opacity="0.7"/>
<path d="M232.77 197.64L230.61 197.64L230.61 180.12L236.25 180.12Q238.70 180.12 240.15 181.52Q241.60 182.93 241.60 185.28Q241.60 187.63 240.15 189.04Q238.70 190.44 236.25 190.44L232.77 190.44L232.77 197.64M232.77 182.06L232.77 188.50L236.25 188.50Q237.66 188.50 238.52 187.62Q239.37 186.74 239.37 185.28Q239.37 183.79 238.52 182.93Q237.66 182.06 236.25 182.06" fill="white" fill-opacity="0.7"/>
<path d="M254.68 197.64L245.32 197.64L245.32 195.67L248.90 195.67L248.90 182.09L245.32 182.09L245.32 180.12L254.68 180.12L254.68 182.09L251.10 182.09L251.10 195.67L254.68 195.67" fill="white" fill-opacity="0.7"/>
<path d="M279.33 197.83L278.27 197.83Q276.06 197.83 274.85 196.84Q273.64 195.84 273.64 194.02L275.80 194.02Q275.80 194.93 276.45 195.44Q277.10 195.96 278.27 195.96L279.33 195.96Q280.53 195.96 281.19 195.43Q281.85 194.90 281.85 193.94Q281.85 192.24 280.29 192.02L276.64 191.50Q275.30 191.30 274.55 190.38Q273.81 189.46 273.81 187.94Q273.81 186.22 275 185.23Q276.18 184.25 278.27 184.25L279.33 184.25Q281.25 184.25 282.46 185.20Q283.67 186.14 283.77 187.68L281.58 187.68Q281.54 186.98 280.92 186.53Q280.31 186.07 279.33 186.07L278.27 186.07Q277.17 186.07 276.54 186.58Q275.92 187.08 275.92 187.94Q275.92 189.34 277.19 189.53L280.60 190.01Q283.96 190.49 283.96 193.94Q283.96 195.79 282.75 196.81Q281.54 197.83 279.33 197.83" fill="white" fill-opacity="0.7"/>
<path d="M290.37 201.96L288.21 201.96L288.21 184.44L290.37 184.44L290.37 186.96L290.39 186.96Q290.56 185.66 291.52 184.93Q292.48 184.20 293.97 184.20Q295.96 184.20 297.14 185.51Q298.31 186.82 298.31 189.10L298.31 192.96Q298.31 195.24 297.14 196.56Q295.96 197.88 293.97 197.88Q292.48 197.88 291.52 197.14Q290.56 196.39 290.39 195.12L290.32 195.12L290.37 198.12L290.37 201.96M293.25 196.01Q294.62 196.01 295.38 195.29Q296.15 194.57 296.15 192.96L296.15 189.12Q296.15 187.49 295.38 186.78Q294.62 186.07 293.25 186.07Q291.93 186.07 291.15 186.91Q290.37 187.75 290.37 189.24L290.37 192.84Q290.37 194.33 291.15 195.17Q291.93 196.01 293.25 196.01" fill="white" fill-opacity="0.7"/>
<path d="M307.60 197.88Q305.27 197.88 303.84 196.48Q302.42 195.07 302.42 192.60L302.42 189.48Q302.42 187.01 303.84 185.60Q305.27 184.20 307.60 184.20Q309.16 184.20 310.32 184.82Q311.49 185.45 312.14 186.58Q312.78 187.70 312.78 189.24L312.78 191.59L304.53 191.59L304.53 192.84Q304.53 194.30 305.37 195.16Q306.21 196.01 307.60 196.01Q308.80 196.01 309.58 195.54Q310.36 195.07 310.53 194.28L312.69 194.28Q312.47 195.94 311.08 196.91Q309.69 197.88 307.60 197.88M304.53 189.24L304.53 189.91L310.67 189.91L310.67 189.24Q310.67 187.68 309.87 186.83Q309.06 185.98 307.60 185.98Q306.14 185.98 305.33 186.83Q304.53 187.68 304.53 189.24" fill="white" fill-opacity="0.7"/>
<path d="M322.19 197.88Q319.79 197.88 318.35 196.54Q316.91 195.19 316.91 192.84L316.91 189.24Q316.91 186.89 318.35 185.54Q319.79 184.20 322.19 184.20Q324.47 184.20 325.88 185.42Q327.28 186.65 327.35 188.76L325.19 188.76Q325.12 187.49 324.33 186.80Q323.54 186.12 322.19 186.12Q320.78 186.12 319.92 186.92Q319.07 187.73 319.07 189.22L319.07 192.84Q319.07 194.33 319.92 195.14Q320.78 195.96 322.19 195.96Q323.54 195.96 324.33 195.26Q325.12 194.57 325.19 193.32L327.35 193.32Q327.28 195.43 325.88 196.66Q324.47 197.88 322.19 197.88" fill="white" fill-opacity="0.7"/>
<path d="M342.52 197.64L331.24 197.64L331.24 195.67L335.92 195.67L335.92 186.41L331.72 186.41L331.72 184.44L338.08 184.44L338.08 195.67L342.52 195.67L342.52 197.64M336.76 182.06Q335.97 182.06 335.51 181.66Q335.06 181.25 335.06 180.55Q335.06 179.83 335.51 179.41Q335.97 178.99 336.76 178.99Q337.55 178.99 338.01 179.41Q338.46 179.83 338.46 180.55Q338.46 181.25 338.01 181.66Q337.55 182.06 336.76 182.06" fill="white" fill-opacity="0.7"/>
<path d="M350.92 197.64L348.76 197.64L348.76 188.21L344.92 188.21L344.92 186.24L348.76 186.24L348.76 183.48Q348.76 181.92 349.74 181.02Q350.73 180.12 352.46 180.12L356.32 180.12L356.32 182.09L352.46 182.09Q350.92 182.09 350.92 183.48L350.92 186.24L356.32 186.24L356.32 188.21L350.92 188.21" fill="white" fill-opacity="0.7"/>
<path d="M371.32 197.64L360.04 197.64L360.04 195.67L364.72 195.67L364.72 186.41L360.52 186.41L360.52 184.44L366.88 184.44L366.88 195.67L371.32 195.67L371.32 197.64M365.56 182.06Q364.77 182.06 364.31 181.66Q363.86 181.25 363.86 180.55Q363.86 179.83 364.31 179.41Q364.77 178.99 365.56 178.99Q366.35 178.99 366.81 179.41Q367.26 179.83 367.26 180.55Q367.26 181.25 366.81 181.66Q366.35 182.06 365.56 182.06" fill="white" fill-opacity="0.7"/>
<path d="M379.79 197.88Q377.39 197.88 375.95 196.54Q374.51 195.19 374.51 192.84L374.51 189.24Q374.51 186.89 375.95 185.54Q377.39 184.20 379.79 184.20Q382.07 184.20 383.48 185.42Q384.88 186.65 384.95 188.76L382.79 188.76Q382.72 187.49 381.93 186.80Q381.14 186.12 379.79 186.12Q378.38 186.12 377.52 186.92Q376.67 187.73 376.67 189.22L376.67 192.84Q376.67 194.33 377.52 195.14Q378.38 195.96 379.79 195.96Q381.14 195.96 381.93 195.26Q382.72 194.57 382.79 193.32L384.95 193.32Q384.88 195.43 383.48 196.66Q382.07 197.88 379.79 197.88" fill="white" fill-opacity="0.7"/>
<path d="M392.85 197.88Q390.81 197.88 389.61 196.74Q388.41 195.60 388.41 193.75Q388.41 192.53 388.96 191.62Q389.51 190.70 390.50 190.19Q391.48 189.67 392.75 189.67L396.83 189.67L396.83 188.64Q396.83 186.07 394.02 186.07Q392.78 186.07 392.01 186.53Q391.24 186.98 391.19 187.80L389.03 187.80Q389.15 186.24 390.48 185.22Q391.82 184.20 394.02 184.20Q396.42 184.20 397.71 185.35Q398.99 186.50 398.99 188.57L398.99 197.64L396.86 197.64L396.86 195.24L396.81 195.24Q396.62 196.46 395.58 197.17Q394.55 197.88 392.85 197.88M393.38 196.06Q394.96 196.06 395.90 195.29Q396.83 194.52 396.83 193.20L396.83 191.35L392.99 191.35Q391.94 191.35 391.28 191.99Q390.62 192.62 390.62 193.68Q390.62 194.78 391.35 195.42Q392.08 196.06 393.38 196.06" fill="white" fill-opacity="0.7"/>
<path d="M413.56 197.64L409.72 197.64Q408.09 197.64 407.10 196.69Q406.12 195.74 406.12 194.16L406.12 186.41L402.33 186.41L402.33 184.44L406.12 184.44L406.12 180.72L408.28 180.72L408.28 184.44L413.68 184.44L413.68 186.41L408.28 186.41L408.28 194.16Q408.28 194.83 408.68 195.25Q409.07 195.67 409.72 195.67L413.56 195.67" fill="white" fill-opacity="0.7"/>
<path d="M428.92 197.64L417.64 197.64L417.64 195.67L422.32 195.67L422.32 186.41L418.12 186.41L418.12 184.44L424.48 184.44L424.48 195.67L428.92 195.67L428.92 197.64M423.16 182.06Q422.37 182.06 421.91 181.66Q421.46 181.25 421.46 180.55Q421.46 179.83 421.91 179.41Q422.37 178.99 423.16 178.99Q423.95 178.99 424.41 179.41Q424.86 179.83 424.86 180.55Q424.86 181.25 424.41 181.66Q423.95 182.06 423.16 182.06" fill="white" fill-opacity="0.7"/>
<path d="M437.20 197.83Q434.82 197.83 433.42 196.44Q432.02 195.05 432.02 192.55L432.02 189.53Q432.02 187.01 433.41 185.63Q434.80 184.25 437.20 184.25Q439.60 184.25 440.99 185.63Q442.38 187.01 442.38 189.53L442.38 192.55Q442.38 195.05 440.98 196.44Q439.58 197.83 437.20 197.83M437.20 195.91Q438.62 195.91 439.42 195.12Q440.22 194.33 440.22 192.79L440.22 189.29Q440.22 187.75 439.42 186.96Q438.62 186.17 437.20 186.17Q435.81 186.17 434.99 186.96Q434.18 187.75 434.18 189.29L434.18 192.79Q434.18 194.33 434.99 195.12Q435.81 195.91 437.20 195.91" fill="white" fill-opacity="0.7"/>
<path d="M448.77 197.64L446.61 197.64L446.61 184.44L448.77 184.44L448.77 186.96L448.79 186.96Q448.96 185.64 449.87 184.92Q450.78 184.20 452.30 184.20Q454.29 184.20 455.46 185.42Q456.64 186.65 456.64 188.76L456.64 197.64L454.48 197.64L454.48 189.14Q454.48 187.63 453.72 186.83Q452.97 186.02 451.67 186.02Q450.33 186.02 449.55 186.86Q448.77 187.70 448.77 189.24" fill="white" fill-opacity="0.7"/>
<path d="M466 197.88Q465.11 197.88 464.57 197.35Q464.03 196.82 464.03 195.98Q464.03 195.10 464.57 194.54Q465.11 193.99 466 193.99Q466.89 193.99 467.43 194.54Q467.97 195.10 467.97 195.98Q467.97 196.82 467.43 197.35Q466.89 197.88 466 197.88" fill="white" fill-opacity="0.7"/>
<path d="M76.11 136.06L66.42 136.06L84.56 65.98L97.14 65.98L115.18 136.06L105.49 136.06L101.07 117.82L80.53 117.82L76.11 136.06M87.54 88.92L82.45 109.95L99.15 109.95L94.16 89.02Q92.72 83.26 91.86 79.23Q90.99 75.20 90.80 73.76Q90.61 75.20 89.74 79.23Q88.88 83.26 87.54 88.92M149.74 136.06L128.14 136.06L128.14 65.98L148.40 65.98Q158.10 65.98 163.71 70.83Q169.33 75.68 169.33 84.12Q169.33 89.60 165.92 93.87Q162.51 98.14 157.14 99.10L157.14 99.39Q161.17 99.87 164.29 102.27Q167.41 104.67 169.18 108.36Q170.96 112.06 170.96 116.48Q170.96 125.50 165.25 130.78Q159.54 136.06 149.74 136.06M137.46 74.33L137.46 95.55L148.30 95.55Q153.68 95.55 156.75 92.72Q159.82 89.88 159.82 84.99Q159.82 80 156.75 77.16Q153.68 74.33 148.40 74.33L137.46 74.33M137.46 103.61L137.46 127.71L148.88 127.71Q154.74 127.71 158.10 124.59Q161.46 121.47 161.46 116.09Q161.46 110.52 158.10 107.07Q154.74 103.61 148.88 103.61L137.46 103.61M230.19 136.06L189.49 136.06L189.49 65.98L198.99 65.98L198.99 127.42L230.19 127.42L230.19 136.06M268.40 136.06L258.90 136.06L258.90 110.04L237.87 65.98L247.95 65.98L260.91 93.63Q262.06 96.12 262.78 98.14Q263.50 100.16 263.70 101.02Q263.98 100.16 264.70 98.14Q265.42 96.12 266.67 93.63L279.54 65.98L289.33 65.98L268.40 110.04L268.40 136.06M367.95 136.06L358.45 136.06L358.45 65.98L381.20 65.98Q387.92 65.98 392.82 68.57Q397.71 71.16 400.40 75.82Q403.09 80.48 403.09 86.91Q403.09 93.24 400.40 97.90Q397.71 102.56 392.77 105.15Q387.82 107.74 381.20 107.74L367.95 107.74L367.95 136.06M367.95 74.43L367.95 99.29L381.20 99.29Q386.77 99.29 390.03 95.88Q393.30 92.48 393.30 86.91Q393.30 81.24 390.03 77.84Q386.77 74.43 381.20 74.43L367.95 74.43M460.59 136.06L419.89 136.06L419.89 65.98L429.39 65.98L429.39 127.42L460.59 127.42L460.59 136.06M479.31 136.06L469.62 136.06L487.76 65.98L500.34 65.98L518.38 136.06L508.69 136.06L504.27 117.82L483.73 117.82L479.31 136.06M490.74 88.92L485.65 109.95L502.35 109.95L497.36 89.02Q495.92 83.26 495.06 79.23Q494.19 75.20 NaN 73.76Q493.81 75.20 492.94 79.23Q492.08 83.26 490.74 88.92M556.40 136.06L546.90 136.06L546.90 74.62L527.89 74.62L527.89 65.98L575.31 65.98L575.31 74.62L556.40 74.62L556.40 136.06M598.64 136.06L589.14 136.06L589.14 65.98L630.99 65.98L630.99 74.72L598.45 74.72L598.45 96.80L628.50 96.80L628.50 105.44L598.64 105.44L598.64 136.06M666.80 137.02Q657.20 137.02 651.63 131.45Q646.06 125.88 646.06 115.71L646.06 86.24Q646.06 76.16 651.63 70.59Q657.20 65.02 666.80 65.02Q676.40 65.02 681.97 70.54Q687.54 76.06 687.54 86.24L687.54 115.71Q687.54 125.88 681.97 131.45Q676.40 137.02 666.80 137.02M666.80 128.57Q672.18 128.57 675.10 125.50Q678.03 122.43 678.03 116.67L678.03 85.28Q678.03 79.61 675.15 76.54Q672.27 73.47 666.80 73.47Q661.33 73.47 658.45 76.54Q655.57 79.61 655.57 85.28L655.57 116.67Q655.57 122.43 658.50 125.50Q661.42 128.57 666.80 128.57M713.55 136.06L704.14 136.06L704.14 65.98L725.84 65.98Q732.27 65.98 737.07 68.52Q741.87 71.07 744.56 75.63Q747.25 80.19 747.25 86.33Q747.25 93.44 743.65 98.52Q740.05 103.61 734.10 105.72L748.21 136.06L737.74 136.06L724.40 106.78L713.55 106.78L713.55 136.06M713.55 74.43L713.55 98.33L725.84 98.33Q731.22 98.33 734.34 95.07Q737.46 91.80 737.46 86.43Q737.46 80.96 734.29 77.69Q731.12 74.43 725.84 74.43L713.55 74.43M768.75 136.06L759.73 136.06L759.73 65.98L773.17 65.98L781.81 96.22L790.83 65.98L804.37 65.98L804.37 136.06L795.25 136.06L795.25 103.90Q795.25 98.81 795.44 92.62Q795.63 86.43 795.97 80.24Q796.30 74.04 796.69 69.05L785.74 104.96L777.68 104.96L767.12 69.92Q767.98 76.92 768.37 85.52Q768.75 94.11 768.75 103.90" fill="url(#paint2_linear_0_1)"/>
<g id="Group 1">
<rect id="Rectangle 1" x="26" y="168" width="12" height="184" rx="5" fill="url(#paint3_linear_0_1)" fill-opacity="0.9"/>
</g>
<g id="Group 1_2">
<rect id="Rectangle 2" x="26" y="38" width="12" height="119" rx="5" fill="url(#paint4_linear_0_1)" fill-opacity="0.9"/>
</g>
<ellipse id="Ellipse 1" cx="148.5" cy="573" rx="215.5" ry="214" fill="url(#paint5_linear_0_1)" fill-opacity="0.4"/>
<rect id="Rectangle 3" x="1229" y="48" width="300" height="300" rx="25" fill="#FFFBFB" fill-opacity="0.9"/>
<g id="placeholder-logo"><g transform="translate(1229,48) translate(0.0,60.0) scale(1.2000)"><g fill="#666666">
  <path d="m88.05,27.65c-3.15,4 -3.2,51.2 -0.05,54.35c2.75,2.75 71.7,3.15 74.45,0.45c2.85,-2.9 2.3,-53.85 -0.65,-55.9c-1.95,-1.35 -7.15,-1.55 -36.95,-1.55l-34.7,0l-2.1,2.65zm69.45,3.35c0.65,0 1,8.6 1,23.75l0,23.75l-33,0l-33,0l-0.25,-23c-0.15,-12.6 -0.1,-23.45 0.15,-24.1c0.35,-0.85 8.9,-1.05 32.25,-0.75c17.55,0.2 32.3,0.35 32.85,0.35z"/>
  <path d="m99.15,37.3c-6.85,7.35 4.25,17.35 11.4,10.25c1.35,-1.35 2.45,-3.65 2.45,-5.05c0,-6.45 -9.35,-9.95 -13.85,-5.2z"/>
  <path d="m135,42.5c-0.7,0.85 -5.25,5.15 -10.1,9.6l-8.85,8.1l-3.2,-3.2l-3.15,-3.15l-6.35,6.3c-5.55,5.5 -6.35,6.75 -6.35,10.05l0,3.8l28.5,0l28.5,0l0,-8.6l0,-8.55l-8.15,-7.7c-9.35,-8.85 -9.15,-8.7 -10.85,-6.65zm7.25,15.2c0.95,0.9 1.75,2.9 1.75,4.45c6.35,-5.05 4.75,-7.15 4.9,-11.55c0.95,0 0,0 0,0l-6.65,7.1z"/>
  <path d="m53.65,110.75c0.1,4.8 0.45,8.65 0.75,8.5c0.35,-0.15 1.3,-0.25 2.1,-0.25c1.1,0 1.5,-1.2 1.5,-4.75l0,-4.75l3.25,5c4.9,7.5 6.2,6.75 6.55,-3.75c0.25,-8.15 0.15,-8.75 -1.7,-8.75c-1.65,0 -2.05,0.8 -2.3,4.75l-0.3,4.75l-2.8,-4.75c-4.85,-8.25 -7.25,-6.9 -7.05,4z"/>
  <path d="m91,108.9c0,9.65 0.3,10.1 6.1,10.1c5.8,0 7.15,-2.65 1.65,-3.2l-3.25,-0.3l-0.3,-6.75c-0.25,-5.95 -0.55,-6.75 -2.25,-6.75c-1.75,0 -1.95,0.7 -1.95,6.9z"/>
  <path d="m151,102.45c0,0.25 1,2.15 2.25,4.2c1.2,2.1 2.45,5.8 2.75,8.25c0.65,5.9 4,6.95 4,1.25c0.05,-2.1 1.25,-5.85 2.95,-8.9l2.9,-5.25l-2.5,0c-1.8,0 -2.8,0.85 -3.75,3.1l-1.3,3.05l-1.25,-3.05c-1.1,-2.6 -6.05,-4.8 -6.05,-2.65z"/>
  <path d="m191,107.45c0,9.05 3.4,8.85 4.25,-0.2c0.45,-5 0.35,-5.25 -1.9,-5.25c-2.2,0 -2.35,0.4 -2.35,5.45z"/>
  <path d="m180.8,104.75c-1.3,5.35 0.65,13.6 3.45,14.35c2.3,0.6 2.75,0.4 2.75,-1.2c0,-1.05 -0.45,-1.9 -1,-1.9c-0.55,0 -1,-1.6 -1,-3.5c0,-1.95 0.45,-3.5 1,-3.5c0.55,0 1,-0.7 1,-1.5c0,-0.85 -0.45,-1.5 -1,-1.5c-0.55,0 -1,-0.7 -1,-1.5c0,-2.1 -3.65,-1.9 -4.2,0.25z"/>
  <path d="m71.55,106.55c-2.2,2.25 -2.05,9.7 0.3,11.8c4.5,4.1 10.15,0.75 10.15,-6.1c0,-4.85 -2,-7.25 -6,-7.25c-1.55,0 -3.55,0.7 -4.45,1.55zm6.25,5.8c0.25,3.05 0,3.65 -1.6,3.65c-2.3,0 -3.25,-2.65 -2.05,-5.85c1.25,-3.35 3.3,-2.1 3.65,2.2z"/>
  <path d="m105.75,106.1c-2.5,1.45 -2.45,9.95 0.1,12.25c4.3,3.9 10.15,0.35 10.15,-6.2c0,-6 -5.15,-9.05 -10.25,-6.05zm6.05,6.25c0.25,3.05 0,3.65 -1.6,3.65c-2.3,0 -3.25,-2.65 -2.05,-5.85c1.25,-3.35 3.3,-2.1 3.65,2.2z"/>
  <path d="m119.2,106.2c-3.8,3.8 -0.4,12.55 4.4,11.35c1.9,-0.45 2.45,-0.3 2.15,0.65c-0.25,0.7 -1.55,1.2 -2.85,1.1c-4.05,-0.3 -5.35,0.45 -3.85,2.25c0.85,1.05 2.6,1.45 5.35,1.25l4.1,-0.3l0.3,-8.75l0.3,-8.75l-4.35,0c-2.4,0 -4.9,0.55 -5.55,1.2zm6.6,4.45c0.4,2.85 -2.15,4.85 -3.75,2.95c-0.9,-1.1 -0.9,-2 -0.05,-3.6c1.35,-2.5 3.4,-2.15 3.8,0.65z"/>
  <path d="m133.55,106.55c-2.2,2.25 -2.05,9.7 0.3,11.8c4.5,4.1 10.15,0.75 10.15,-6.1c0,-4.85 -2,-7.25 -6,-7.25c-1.55,0 -3.55,0.7 -4.45,1.55zm6.25,5.8c0.25,3.05 0,3.65 -1.6,3.65c-2.3,0 -3.25,-2.65 -2.05,-5.85c1.25,-3.35 3.3,-2.1 3.65,2.2z"/>
  <path d="m167.65,106.85c-3.9,4.3 -0.75,13.15 4.7,13.15c2.4,0 5.65,-2.75 5.65,-4.85c0,-1.4 -2.65,-1.55 -3.5,-0.15c-0.95,1.55 -4.5,1.15 -4.5,-0.5c0,-1.1 1.1,-1.5 4,-1.5c3.15,0 4,-0.35 4,-1.8c0,-5.3 -6.85,-8.25 -10.35,-4.35z"/>
  <path d="m191,117.5c0,2.15 0.4,2.6 2.25,2.3c1.5,-0.2 2.25,-1 2.25,-2.3c0,-1.3 -0.75,-2.1 -2.25,-2.3c-1.85,-0.3 -2.25,0.15 -2.25,2.3z"/>
 </g></g></g>
</g>
<defs>
<linearGradient id="paint0_linear_0_1" x1="0" y1="198" x2="1584" y2="198" gradientUnits="userSpaceOnUse">
<stop stop-color="#3D052C"/>
<stop offset="1"/>
</linearGradient>
<linearGradient id="paint1_linear_0_1" x1="323" y1="-224" x2="323" y2="352" gradientUnits="userSpaceOnUse">
<stop stop-color="#28F6F2" stop-opacity="0.4"/>
<stop offset="1" stop-color="#17908E" stop-opacity="0.7"/>
</linearGradient>
<linearGradient id="paint2_linear_0_1" x1="148.5" y1="38" x2="148.5" y2="140" gradientUnits="userSpaceOnUse">
<stop stop-color="white"/>
<stop offset="1" stop-color="#999999"/>
</linearGradient>
<linearGradient id="paint3_linear_0_1" x1="38" y1="260" x2="26" y2="260" gradientUnits="userSpaceOnUse">
<stop stop-color="#D9D9D9"/>
<stop offset="1" stop-color="#737373"/>
</linearGradient>
<linearGradient id="paint4_linear_0_1" x1="38" y1="97.5" x2="26" y2="97.5" gradientUnits="userSpaceOnUse">
<stop stop-color="#D9D9D9"/>
<stop offset="1" stop-color="#737373"/>
</linearGradient>
<linearGradient id="paint5_linear_0_1" x1="27.5" y1="434.5" x2="148.5" y2="787" gradientUnits="userSpaceOnUse">
<stop stop-color="#2E21BC"/>
<stop offset="1" stop-color="#150F56"/>
</linearGradient>
<clipPath id="clip0_0_1">
<rect width="1584" height="396" fill="white"/>
</clipPath>
</defs>
</svg>
